<svg id="visual" viewBox="0 0 900 600" width="900" height="600" xmlns="http://www.w3.org/2000/svg" xmlns:xlink="http://www.w3.org/1999/xlink" version="1.1"><rect x="0" y="0" width="900" height="600" fill="#000"></rect><path d="M0 487L12.5 482.5C25 478 50 469 75 464C100 459 125 458 150 460.2C175 462.3 200 467.7 225 472.3C250 477 275 481 300 481.7C325 482.3 350 479.7 375 474.2C400 468.7 425 460.3 450 463C475 465.7 500 479.3 525 479.5C550 479.7 575 466.3 600 464.7C625 463 650 473 675 479.8C700 486.7 725 490.3 750 486C775 481.7 800 469.3 825 462.7C850 456 875 455 887.5 454.5L900 454L900 601L887.5 601C875 601 850 601 825 601C800 601 775 601 750 601C725 601 700 601 675 601C650 601 625 601 600 601C575 601 550 601 525 601C500 601 475 601 450 601C425 601 400 601 375 601C350 601 325 601 300 601C275 601 250 601 225 601C200 601 175 601 150 601C125 601 100 601 75 601C50 601 25 601 12.5 601L0 601Z" fill="#32a5d3"></path><path d="M0 482L12.5 487C25 492 50 502 75 509.8C100 517.7 125 523.3 150 521.5C175 519.7 200 510.3 225 509.2C250 508 275 515 300 512.7C325 510.3 350 498.7 375 493.2C400 487.7 425 488.3 450 492.2C475 496 500 503 525 507.3C550 511.7 575 513.3 600 511C625 508.7 650 502.3 675 503.3C700 504.3 725 512.7 750 511.7C775 510.7 800 500.3 825 497C850 493.7 875 497.3 887.5 499.2L900 501L900 601L887.5 601C875 601 850 601 825 601C800 601 775 601 750 601C725 601 700 601 675 601C650 601 625 601 600 601C575 601 550 601 525 601C500 601 475 601 450 601C425 601 400 601 375 601C350 601 325 601 300 601C275 601 250 601 225 601C200 601 175 601 150 601C125 601 100 601 75 601C50 601 25 601 12.5 601L0 601Z" fill="#008cf6"></path><path d="M0 513L12.5 516.8C25 520.7 50 528.3 75 535.2C100 542 125 548 150 549C175 550 200 546 225 542C250 538 275 534 300 532.7C325 531.3 350 532.7 375 530.2C400 527.7 425 521.3 450 519.8C475 518.3 500 521.7 525 527.8C550 534 575 543 600 547C625 551 650 550 675 546.7C700 543.3 725 537.7 750 537.8C775 538 800 544 825 547.3C850 550.7 875 551.3 887.5 551.7L900 552L900 601L887.5 601C875 601 850 601 825 601C800 601 775 601 750 601C725 601 700 601 675 601C650 601 625 601 600 601C575 601 550 601 525 601C500 601 475 601 450 601C425 601 400 601 375 601C350 601 325 601 300 601C275 601 250 601 225 601C200 601 175 601 150 601C125 601 100 601 75 601C50 601 25 601 12.5 601L0 601Z" fill="#0061ff"></path><path d="M0 554L12.5 554C25 554 50 554 75 554.2C100 554.3 125 554.7 150 557C175 559.3 200 563.7 225 566.7C250 569.7 275 571.3 300 569.2C325 567 350 561 375 561C400 561 425 567 450 566.2C475 565.3 500 557.7 525 554.7C550 551.7 575 553.3 600 558.3C625 563.3 650 571.7 675 574C700 576.3 725 572.7 750 570C775 567.3 800 565.7 825 564C850 562.3 875 560.7 887.5 559.8L900 559L900 601L887.5 601C875 601 850 601 825 601C800 601 775 601 750 601C725 601 700 601 675 601C650 601 625 601 600 601C575 601 550 601 525 601C500 601 475 601 450 601C425 601 400 601 375 601C350 601 325 601 300 601C275 601 250 601 225 601C200 601 175 601 150 601C125 601 100 601 75 601C50 601 25 601 12.5 601L0 601Z" fill="#2214f7"></path></svg>