<svg id="visual" viewBox="0 0 900 600" width="900" height="600" xmlns="http://www.w3.org/2000/svg" xmlns:xlink="http://www.w3.org/1999/xlink" version="1.1"><rect x="0" y="0" width="900" height="600" fill="#000"></rect><path d="M0 177L12.5 173.2C25 169.3 50 161.7 75 165.5C100 169.3 125 184.7 150 192.8C175 201 200 202 225 192C250 182 275 161 300 156.2C325 151.3 350 162.7 375 165.2C400 167.7 425 161.3 450 159.8C475 158.3 500 161.7 525 167.5C550 173.3 575 181.7 600 184.5C625 187.3 650 184.7 675 178.7C700 172.7 725 163.3 750 164.3C775 165.3 800 176.7 825 177.2C850 177.7 875 167.3 887.5 162.2L900 157L900 0L887.5 0C875 0 850 0 825 0C800 0 775 0 750 0C725 0 700 0 675 0C650 0 625 0 600 0C575 0 550 0 525 0C500 0 475 0 450 0C425 0 400 0 375 0C350 0 325 0 300 0C275 0 250 0 225 0C200 0 175 0 150 0C125 0 100 0 75 0C50 0 25 0 12.5 0L0 0Z" fill="#32a5d3"></path><path d="M0 166L12.5 158.3C25 150.7 50 135.3 75 131.8C100 128.3 125 136.7 150 141.7C175 146.7 200 148.3 225 146C250 143.7 275 137.3 300 136.2C325 135 350 139 375 135.2C400 131.3 425 119.7 450 113.7C475 107.7 500 107.3 525 110.2C550 113 575 119 600 125.5C625 132 650 139 675 142.8C700 146.7 725 147.3 750 143.5C775 139.7 800 131.3 825 124.5C850 117.7 875 112.3 887.5 109.7L900 107L900 0L887.5 0C875 0 850 0 825 0C800 0 775 0 750 0C725 0 700 0 675 0C650 0 625 0 600 0C575 0 550 0 525 0C500 0 475 0 450 0C425 0 400 0 375 0C350 0 325 0 300 0C275 0 250 0 225 0C200 0 175 0 150 0C125 0 100 0 75 0C50 0 25 0 12.5 0L0 0Z" fill="#0094ef"></path><path d="M0 96L12.5 100.2C25 104.3 50 112.7 75 110.3C100 108 125 95 150 94.8C175 94.7 200 107.3 225 113.7C250 120 275 120 300 112.5C325 105 350 90 375 90.3C400 90.7 425 106.3 450 107.5C475 108.7 500 95.3 525 96C550 96.7 575 111.3 600 117.7C625 124 650 122 675 116.3C700 110.7 725 101.3 750 103C775 104.7 800 117.3 825 116.3C850 115.3 875 100.7 887.5 93.3L900 86L900 0L887.5 0C875 0 850 0 825 0C800 0 775 0 750 0C725 0 700 0 675 0C650 0 625 0 600 0C575 0 550 0 525 0C500 0 475 0 450 0C425 0 400 0 375 0C350 0 325 0 300 0C275 0 250 0 225 0C200 0 175 0 150 0C125 0 100 0 75 0C50 0 25 0 12.5 0L0 0Z" fill="#0079fe"></path><path d="M0 67L12.5 66.2C25 65.3 50 63.7 75 62.3C100 61 125 60 150 59.2C175 58.3 200 57.7 225 56.5C250 55.3 275 53.7 300 55.7C325 57.7 350 63.3 375 63.3C400 63.3 425 57.7 450 60C475 62.3 500 72.7 525 74.7C550 76.7 575 70.3 600 65.3C625 60.3 650 56.7 675 61C700 65.3 725 77.7 750 84.5C775 91.3 800 92.7 825 90.3C850 88 875 82 887.5 79L900 76L900 0L887.5 0C875 0 850 0 825 0C800 0 775 0 750 0C725 0 700 0 675 0C650 0 625 0 600 0C575 0 550 0 525 0C500 0 475 0 450 0C425 0 400 0 375 0C350 0 325 0 300 0C275 0 250 0 225 0C200 0 175 0 150 0C125 0 100 0 75 0C50 0 25 0 12.5 0L0 0Z" fill="#0054ff"></path><path d="M0 42L12.5 39.3C25 36.7 50 31.3 75 29.2C100 27 125 28 150 29.2C175 30.3 200 31.7 225 30C250 28.3 275 23.7 300 23.7C325 23.7 350 28.3 375 33C400 37.7 425 42.3 450 43.5C475 44.7 500 42.3 525 43.7C550 45 575 50 600 50C625 50 650 45 675 40.5C700 36 725 32 750 33.5C775 35 800 42 825 45.2C850 48.3 875 47.7 887.5 47.3L900 47L900 0L887.5 0C875 0 850 0 825 0C800 0 775 0 750 0C725 0 700 0 675 0C650 0 625 0 600 0C575 0 550 0 525 0C500 0 475 0 450 0C425 0 400 0 375 0C350 0 325 0 300 0C275 0 250 0 225 0C200 0 175 0 150 0C125 0 100 0 75 0C50 0 25 0 12.5 0L0 0Z" fill="#2214f7"></path></svg>